<svg width="526" height="166" viewBox="0 0 526 166" fill="none" xmlns="http://www.w3.org/2000/svg">
<path d="M204.781 89.6562V48.9688H217.203V89.6562C217.203 100.344 222.672 105.688 233.609 105.688C244.547 105.688 250.016 100.344 250.016 89.6562V48.9688H262.438V89.6562C262.438 107.531 252.828 116.469 233.609 116.469C214.391 116.469 204.781 107.531 204.781 89.6562ZM276.5 116V48.9688H306.5C320.188 48.9688 327.031 55.2656 327.031 67.8594C327.031 81.5156 317.672 89.7812 298.953 92.6562L297.172 81.5938C308.422 79.5625 314.047 75.1094 314.047 68.2344C314.047 62.6719 311.266 59.8906 305.703 59.8906H288.922V116H276.5Z" fill="white"/>
<rect x="171" y="49" width="27" height="67" rx="2" fill="white"/>
<path d="M192 104.749L174.544 104.749L174.544 101.392L187.789 95.4719L174.544 89.6736L174.544 86.4387L192 86.4387L192 89.4295L179.842 89.4295L192 94.1658L192 96.9246L179.842 101.759L192 101.759L192 104.749ZM174.544 79.5418L192 79.5418L192 82.7766L174.544 82.7766L174.544 79.5418ZM183.272 70.5208L174.544 77.3933L174.544 73.304L180.916 68.4822L174.544 63.6604L174.544 59.5711L183.272 66.4314L192 59.5711L192 63.6604L185.628 68.4822L192 73.304L192 77.3933L183.272 70.5208Z" fill="#1A1D1D"/>
</svg>
