<svg width="526" height="166" viewBox="0 0 526 166" fill="none" xmlns="http://www.w3.org/2000/svg">
<path d="M204.781 89.6562V48.9688H217.203V89.6562C217.203 100.344 222.672 105.688 233.609 105.688C244.547 105.688 250.016 100.344 250.016 89.6562V48.9688H262.438V89.6562C262.438 107.531 252.828 116.469 233.609 116.469C214.391 116.469 204.781 107.531 204.781 89.6562ZM276.5 116V48.9688H306.5C320.188 48.9688 327.031 55.2656 327.031 67.8594C327.031 81.5156 317.672 89.7812 298.953 92.6562L297.172 81.5938C308.422 79.5625 314.047 75.1094 314.047 68.2344C314.047 62.6719 311.266 59.8906 305.703 59.8906H288.922V116H276.5Z" fill="white"/>
<rect x="171" y="49" width="27" height="67" rx="2" fill="white"/>
<path d="M191 106.315L175.639 106.315L175.639 99.4397C175.639 96.303 177.082 94.7346 179.968 94.7346C183.097 94.7346 184.992 96.8795 185.65 101.169L183.115 101.577C182.65 98.9993 181.629 97.7102 180.054 97.7102C178.779 97.7102 178.142 98.3476 178.142 99.6223L178.142 103.468L191 103.468L191 106.315ZM175.639 89.9973L191 89.9973L191 92.844L175.639 92.844L175.639 89.9973ZM190.355 74.5178C190.857 75.8427 191.107 77.3466 191.107 79.0296C191.107 84.5439 188.44 87.301 183.104 87.301C178.056 87.301 175.531 84.5439 175.531 79.0296C175.531 77.3466 175.782 75.8427 176.283 74.5178L178.861 74.5178C178.288 75.8427 178.002 77.275 178.002 78.8147C178.002 82.5029 179.703 84.3469 183.104 84.3469C186.793 84.3469 188.637 82.5029 188.637 78.8147C188.637 77.275 188.35 75.8427 187.777 74.5178L190.355 74.5178ZM175.639 68.9856L191 68.9856L191 71.8323L175.639 71.8323L175.639 68.9856ZM175.639 58.179L182.804 64.7317L191 57.4915L191 61.4339L183.824 67.3743L181.977 67.3743L175.639 61.6594L175.639 58.179Z" fill="#1A1D1D"/>
</svg>
