<svg width="526" height="166" viewBox="0 0 526 166" fill="none" xmlns="http://www.w3.org/2000/svg">
<path d="M225.938 127V51.3125H216.562V44.5L242.5 35.75V127H225.938ZM276.25 82.0625C276.25 102.854 283.812 113.25 298.938 113.25C313.604 113.25 320.938 102.854 320.938 82.0625C320.938 61.6042 313.604 51.375 298.938 51.375C283.812 51.375 276.25 61.6042 276.25 82.0625ZM259.062 82.4375C259.062 52.1458 272.354 37 298.938 37C325.062 37 338.125 52.1458 338.125 82.4375C338.125 112.562 325.062 127.625 298.938 127.625C272.354 127.625 259.062 112.562 259.062 82.4375Z" fill="white"/>
<path d="M163.305 158V140.544H170.751C174.072 140.544 175.732 141.94 175.732 144.731C175.732 147.001 174.108 148.682 170.861 149.772L176.855 158H173.876L168.322 150.151V148.674C171.659 148.145 173.327 146.863 173.327 144.829C173.327 143.217 172.399 142.412 170.544 142.412H165.563V158H163.305ZM178.393 154.13C178.393 151.502 180.126 150.188 183.593 150.188C184.708 150.188 185.823 150.269 186.938 150.432V149.223C186.938 147.75 185.786 147.014 183.483 147.014C182.165 147.014 180.814 147.217 179.431 147.624V145.793C180.814 145.386 182.165 145.183 183.483 145.183C187.292 145.183 189.196 146.509 189.196 149.162V158H187.927L187.146 156.73C185.868 157.577 184.476 158 182.971 158C179.919 158 178.393 156.71 178.393 154.13ZM183.593 152.019C181.632 152.019 180.651 152.71 180.651 154.094C180.651 155.477 181.424 156.169 182.971 156.169C184.533 156.169 185.856 155.754 186.938 154.924V152.263C185.823 152.1 184.708 152.019 183.593 152.019ZM192.871 143.107H194.287L194.775 145.183H198.242V147.014H195.129V154.375C195.129 155.571 195.646 156.169 196.679 156.169H198.242V158H196.093C193.945 158 192.871 156.848 192.871 154.545V143.107ZM206.408 145.183C210.054 145.183 211.877 146.985 211.877 150.59C211.877 151.103 211.84 151.652 211.767 152.238H202.771C202.771 154.859 204.3 156.169 207.36 156.169C208.817 156.169 210.111 156.006 211.242 155.681V157.512C210.111 157.837 208.736 158 207.116 158C202.714 158 200.512 155.815 200.512 151.445C200.512 147.27 202.478 145.183 206.408 145.183ZM202.771 150.358H209.704C209.655 148.112 208.557 146.989 206.408 146.989C204.13 146.989 202.917 148.112 202.771 150.358ZM223.522 147.795C222.611 147.355 221.569 147.136 220.397 147.136C217.818 147.136 216.528 148.507 216.528 151.25C216.528 154.497 217.818 156.12 220.397 156.12C221.569 156.12 222.611 155.961 223.522 155.644V147.795ZM225.781 157.231C224.226 157.744 222.31 158 220.031 158C216.215 158 214.306 155.778 214.306 151.335C214.306 147.233 216.333 145.183 220.385 145.183C221.492 145.183 222.538 145.386 223.522 145.793V140.544H225.781V157.231ZM248.974 157.39C247.469 157.878 245.841 158.122 244.091 158.122C237.988 158.122 234.936 155.091 234.936 149.028C234.936 143.291 237.988 140.422 244.091 140.422C245.841 140.422 247.469 140.666 248.974 141.154V143.107C247.469 142.538 245.922 142.253 244.335 142.253C239.575 142.253 237.194 144.511 237.194 149.028C237.194 153.87 239.575 156.291 244.335 156.291C245.922 156.291 247.469 156.006 248.974 155.437V157.39ZM254.113 151.542C254.113 154.627 255.395 156.169 257.958 156.169C260.522 156.169 261.804 154.627 261.804 151.542C261.804 148.523 260.522 147.014 257.958 147.014C255.395 147.014 254.113 148.523 254.113 151.542ZM251.855 151.591C251.855 147.319 253.889 145.183 257.958 145.183C262.028 145.183 264.062 147.319 264.062 151.591C264.062 155.856 262.028 157.988 257.958 157.988C253.906 157.988 251.871 155.856 251.855 151.591ZM276.757 157.634C275.699 157.878 274.56 158 273.339 158C268.782 158 266.503 155.782 266.503 151.347C266.503 147.237 268.782 145.183 273.339 145.183C274.56 145.183 275.699 145.305 276.757 145.549V147.38C275.699 147.136 274.519 147.014 273.217 147.014C270.247 147.014 268.762 148.458 268.762 151.347C268.762 154.562 270.247 156.169 273.217 156.169C274.519 156.169 275.699 156.047 276.757 155.803V157.634ZM279.638 158V140.544H281.896V146.184C283.142 145.516 284.578 145.183 286.206 145.183C289.396 145.183 290.991 146.416 290.991 148.881C290.991 150.672 289.77 151.909 287.329 152.592L291.43 158H288.574L284.497 152.568V151.555C287.32 151.302 288.732 150.407 288.732 148.869C288.732 147.632 287.837 147.014 286.047 147.014C284.639 147.014 283.256 147.396 281.896 148.161V158H279.638ZM294.067 143.107H295.483L295.971 145.183H299.438V147.014H296.325V154.375C296.325 155.571 296.842 156.169 297.875 156.169H299.438V158H297.29C295.141 158 294.067 156.848 294.067 154.545V143.107ZM301.708 154.13C301.708 151.502 303.442 150.188 306.909 150.188C308.024 150.188 309.139 150.269 310.253 150.432V149.223C310.253 147.75 309.102 147.014 306.799 147.014C305.48 147.014 304.13 147.217 302.746 147.624V145.793C304.13 145.386 305.48 145.183 306.799 145.183C310.607 145.183 312.512 146.509 312.512 149.162V158H311.242L310.461 156.73C309.183 157.577 307.792 158 306.286 158C303.234 158 301.708 156.71 301.708 154.13ZM306.909 152.019C304.947 152.019 303.967 152.71 303.967 154.094C303.967 155.477 304.74 156.169 306.286 156.169C307.849 156.169 309.171 155.754 310.253 154.924V152.263C309.139 152.1 308.024 152.019 306.909 152.019ZM318.688 145.183V158H316.43V145.183H318.688ZM318.688 140.544V142.68H316.43V140.544H318.688ZM324.987 140.544V158H322.729V140.544H324.987ZM328.662 157.39V155.437C330.167 155.925 331.689 156.169 333.227 156.169C335.27 156.169 336.291 155.559 336.291 154.338C336.291 153.199 335.579 152.629 334.155 152.629H332.324C329.557 152.629 328.173 151.368 328.173 148.845C328.173 146.403 329.951 145.183 333.508 145.183C335.038 145.183 336.556 145.386 338.061 145.793V147.746C336.556 147.258 335.038 147.014 333.508 147.014C331.376 147.014 330.31 147.624 330.31 148.845C330.31 149.984 330.981 150.554 332.324 150.554H334.155C337.084 150.554 338.549 151.815 338.549 154.338C338.549 156.779 336.775 158 333.227 158C331.689 158 330.167 157.797 328.662 157.39Z" fill="white"/>
<rect x="177" y="38" width="29" height="89" rx="2" fill="white"/>
<path d="M182.544 94.4619L185.352 94.4619L185.352 99.4668L200 99.4668L200 102.702L185.352 102.702L185.352 107.707L182.544 107.707L182.544 94.4619ZM191.223 89.8721C195.284 89.8721 197.314 88.0695 197.314 84.4644C197.314 80.9487 195.284 79.1909 191.223 79.1909C187.227 79.1909 185.229 80.9487 185.229 84.4644C185.229 88.0695 187.227 89.8721 191.223 89.8721ZM191.296 93.229C185.38 93.229 182.422 90.3075 182.422 84.4644C182.422 78.7108 185.38 75.834 191.296 75.834C197.18 75.834 200.122 78.7108 200.122 84.4644C200.122 90.047 197.18 92.9686 191.296 93.229ZM200 72.77L182.544 72.77L182.544 64.9575C182.544 61.3931 184.184 59.6108 187.463 59.6108C191.02 59.6108 193.172 62.0482 193.921 66.9229L191.04 67.3867C190.511 64.457 189.351 62.9922 187.561 62.9922C186.112 62.9922 185.388 63.7165 185.388 65.165L185.388 69.5352L200 69.5352L200 72.77Z" fill="#1A1A1D"/>
</svg>
