<svg width="450" height="142" viewBox="0 0 450 142" fill="none" xmlns="http://www.w3.org/2000/svg">
<path d="M197.179 104V47.2344H190.148V42.125L209.601 35.5625V104H197.179ZM234.913 70.2969C234.913 85.8906 240.585 93.6875 251.929 93.6875C262.929 93.6875 268.429 85.8906 268.429 70.2969C268.429 54.9531 262.929 47.2812 251.929 47.2812C240.585 47.2812 234.913 54.9531 234.913 70.2969ZM222.023 70.5781C222.023 47.8594 231.992 36.5 251.929 36.5C271.523 36.5 281.32 47.8594 281.32 70.5781C281.32 93.1719 271.523 104.469 251.929 104.469C231.992 104.469 222.023 93.1719 222.023 70.5781Z" fill="white"/>
<rect x="161" y="37" width="25" height="67" rx="2" fill="white"/>
<path d="M164.544 81.4739L167.352 81.4739L167.352 86.4788L182 86.4788L182 89.7137L167.352 89.7137L167.352 94.7185L164.544 94.7185L164.544 81.4739ZM173.223 76.8841C177.284 76.8841 179.314 75.0815 179.314 71.4764C179.314 67.9607 177.284 66.2029 173.223 66.2029C169.227 66.2029 167.229 67.9607 167.229 71.4764C167.229 75.0815 169.227 76.8841 173.223 76.8841ZM173.296 80.241C167.38 80.241 164.422 77.3195 164.422 71.4764C164.422 65.7228 167.38 62.846 173.296 62.846C179.18 62.846 182.122 65.7228 182.122 71.4764C182.122 77.059 179.18 79.9806 173.296 80.241ZM182 59.782L164.544 59.782L164.544 51.9695C164.544 48.4051 166.184 46.6228 169.463 46.6228C173.02 46.6228 175.172 49.0602 175.921 53.9349L173.04 54.3987C172.511 51.469 171.351 50.0042 169.561 50.0042C168.112 50.0042 167.388 50.7285 167.388 52.177L167.388 56.5472L182 56.5472L182 59.782Z" fill="#1A1A1D"/>
</svg>
